<?xml version="1.0" encoding="iso-8859-1"?>
<!-- Generator: Adobe Illustrator 22.0.0, SVG Export Plug-In . SVG Version: 6.00 Build 0)  -->
<svg version="1.1" id="Layer_1" xmlns="http://www.w3.org/2000/svg" xmlns:xlink="http://www.w3.org/1999/xlink" x="0px" y="0px"
	 width="361.08px" height="88.5px" viewBox="0 0 361.08 88.5" enable-background="new 0 0 361.08 88.5" xml:space="preserve">
<g>
	<polygon fill="#FFFFFF" points="179.789,45.179 175.158,55 170.969,55 170.525,45.179 170.364,45.179 168.327,55 163.936,55 
		166.989,40.307 174.224,40.307 174.335,48.752 174.517,48.752 178.097,40.307 185.54,40.307 182.494,55 177.853,55 179.976,45.179 
			"/>
	<path fill="#FFFFFF" d="M198.731,49.334l-0.278-5.564h-0.171l-2.706,5.564H198.731z M195.824,40.307h6.697L203.552,55h-4.807
		l-0.063-2.6h-4.304l-1.172,2.6h-4.514L195.824,40.307z"/>
	<polygon fill="#FFFFFF" points="232.749,43.772 229.531,43.772 230.249,40.307 241.488,40.307 240.768,43.772 237.548,43.772 
		235.213,55 230.408,55 	"/>
	<polygon fill="#FFFFFF" points="260.648,40.307 267.163,40.307 268.595,49.078 268.736,49.078 270.561,40.307 275.123,40.307 
		272.067,55 265.56,55 264.333,46.017 264.171,46.017 262.301,55 257.592,55 	"/>
	<path fill="#FFFFFF" d="M217.885,46.428c1.359,0,1.938-0.674,1.938-1.564c0-0.724-0.42-1.091-1.402-1.091h-1.207l-0.553,2.655
		H217.885z M213.122,40.307h7.088c3.459,0,4.685,1.922,4.685,3.749c0,2.77-2.334,3.576-3.488,3.788v0.206
		c1.405,0.177,2.039,1.175,2.039,2.407c0,0.963-0.214,1.958-0.214,3.232c0,0.503,0.095,1.12,0.126,1.311h-5.138
		c-0.011-0.08-0.074-0.566-0.074-0.852c0-1.233,0.338-2.098,0.338-3.444c0-0.619-0.247-1.213-1.225-1.213h-1.241L214.881,55h-4.817
		L213.122,40.307z"/>
	<polygon fill="#FFFFFF" points="247.58,40.307 252.383,40.307 249.331,55 244.523,55 	"/>
	<polygon fill="#FFFFFF" points="4.391,40.307 9.192,40.307 6.86,51.533 11.561,51.533 10.874,55 1.332,55 	"/>
	<polygon fill="#FFFFFF" points="59.969,40.307 64.771,40.307 63.458,46.623 63.581,46.623 67.837,40.307 72.952,40.307 
		67.645,47.24 70.299,55 65.187,55 63.194,48.473 63.074,48.473 61.718,55 56.91,55 	"/>
	<polygon fill="#FFFFFF" points="84.882,49.49 82.017,49.49 80.871,55 76.066,55 79.123,40.307 83.927,40.307 82.78,45.818 
		85.647,45.818 86.794,40.307 91.597,40.307 88.542,55 83.735,55 	"/>
	<polygon fill="#FFFFFF" points="118.661,40.307 128.758,40.307 128.037,43.775 122.741,43.775 122.292,45.938 127.092,45.938 
		126.366,49.406 121.571,49.406 121.13,51.533 126.666,51.533 125.938,55 115.602,55 	"/>
	<polygon fill="#FFFFFF" points="100.249,40.307 110.347,40.307 109.627,43.775 104.331,43.775 103.882,45.938 108.681,45.938 
		107.955,49.406 103.161,49.406 102.718,51.533 108.255,51.533 107.527,55 97.191,55 	"/>
	<path fill="#FFFFFF" d="M23.92,51.533c2.107,0,3.006-5.251,3.006-6.461c0-0.655-0.296-1.291-1.243-1.291
		c-2.176,0-3.012,5.349-3.012,6.45C22.671,51.281,23.34,51.533,23.92,51.533 M26.197,40.107c3.577,0,5.502,2.017,5.502,5.187
		c0,3.857-1.993,9.911-8.292,9.911c-3.477,0-5.503-1.921-5.503-5.161C17.904,45.777,20.109,40.107,26.197,40.107"/>
	<path fill="#FFFFFF" d="M140.37,51.533h1.401c1.949,0,3.303-2.568,3.303-5.741c0-1.142-0.515-2.017-2.232-2.017h-0.857
		L140.37,51.533z M137.911,40.307h5.44c4.64,0,6.559,2.597,6.559,5.471c0,5.459-3.437,9.223-9.203,9.223h-5.86L137.911,40.307z"/>
	<path fill="#FFFFFF" d="M50.026,49.49c-0.803,3.952-3.703,5.713-7.076,5.713c-3.554,0-5.496-2-5.496-5.163
		c0-3.701,1.884-9.934,8.3-9.934c2.938,0,5.285,1.089,5.212,4.219c-0.01,0.453-0.107,1.195-0.146,1.493h-4.473
		c0.017-0.09,0.098-0.5,0.098-0.928c0-0.83-0.609-1.108-1.176-1.108c-2.192,0-3.029,5.281-3.029,6.467
		c0,0.887,0.513,1.283,1.226,1.283c0.734,0,1.421-0.569,2.004-2.043H50.026z"/>
	<path fill="#FFFFFF" d="M290.384,50.601C289.976,51.013,289.976,51.011,290.384,50.601"/>
	<path fill="#FFFFFF" d="M360.83,30.742h-32.633c4.279-16.118,8.154-29.791,8.154-29.791S321.66,16.66,308.615,30.742l-129.353,0.27
		c0.006,0,0.054,0,0.134,0.002l-0.134-0.002l126.145,3.18c-9.704,10.318-14.817,16.205-15.022,16.408l0.051-0.046
		c0.415-0.372,17.879-16.289,17.879-16.289l15.352,0.387l-2.311,12.108l-71.936,40.698c-0.176,0.097-0.278,0.153-0.287,0.16
		c0,0,57.12-30.013,71.543-37.307c0,0-5.063,26.418-5.063,26.531c0-0.006,0.004-0.023,0.009-0.051l-0.009,0.051l0.063-0.259
		c0.461-1.723,3.499-12.105,7.621-27.483C342.07,39.526,360.83,30.742,360.83,30.742 M326.986,17.257l-2.574,13.485h-12.229
		L326.986,17.257z M327.068,34.738l14.873,0.375l-17.665,9.995C325.241,41.552,326.101,38.312,327.068,34.738"/>
</g>
</svg>
